<svg xmlns="http://www.w3.org/2000/svg" viewBox="0 0 824.3 215">
  <path d="M762.6 180.8c.6-16.1 14-28.4 30.1-27.8 15.3.6 28.1 14.5 27.5 29.7-.6 15.2-14.7 28.6-29.4 28-16.2-.7-28.8-14.1-28.2-29.9z" fill="#9ed434"/>
  <g fill="#fdfdfd">
    <path d="M669.1 212.4c-42.1.2-74-31.4-74-73.9 0-40.8 27.8-72.9 73.3-73.1 46.3-.3 74.2 31.7 74.6 72.2.5 42.9-31 74.6-73.9 74.8zm31.2-75c.2-5.5-1.1-11.6-4.1-17.6-8.7-17.2-34-21.6-47.9-8.2-10.3 9.8-13.6 26.9-8 41.5 7.4 19.5 31.7 26.4 47.9 13.5 8.9-7.2 12.3-16.9 12.1-29.2zM202.4 149.3c-14.8 0-29.6.1-44.4-.1-3.8 0-4.3 1.3-3.5 4.5 3.4 13.9 17.9 23.3 33.9 22.2 11-.7 19.2-5.5 23.9-15.7.9-2 1.9-2.4 4.1-1.8 9.5 2.8 19 5.7 28.7 8 3.9 1 4.2 2.5 2.9 5.8-8.9 23.1-26.5 35.3-50.2 38.9-20.7 3.2-40.1-.9-57.3-13.5-7-5.1-13.2-11.3-17.1-19-6.4-12.8-10.2-26.4-10-41 .2-12.9 3-24.9 8.4-36.6 6.5-14.2 17.2-24.2 31.1-30 18.2-7.6 36.9-7.3 56-2.2 26.7 7.2 40.1 32.7 42 53.1.7 7.9 1.3 15.8.5 23.7-.3 2.7-1.4 3.5-4.1 3.5-15 .1-30 .2-44.9.2zm-19.8-27.6c8.1 0 16.1-.1 24.2.1 3.5.1 3.9-1.1 3.1-4.3-3.1-11.9-11.6-17.1-22.8-19.2-13.5-2.4-28.6 6.9-31.5 19.3-.7 3-.4 4.4 3.2 4.3 7.9-.4 15.8-.2 23.8-.2zM330.1 212.3c-13.6.2-27.4-2.9-39.4-12-9.4-7.2-15.4-16.7-17.6-28.4-.4-2.4.1-3.3 2.6-3.7 10.1-1.7 20.1-3.5 30.1-5.5 2.2-.4 3-.1 3.6 2.2 4.1 16.3 18.6 18.1 29.9 14.6 4.4-1.4 7.7-6 7.7-10.4 0-4.9-2.8-8.1-7.2-9.7-6.3-2.4-12.9-3.5-19.5-4.9-9.4-2-18.4-4.9-26.6-10.1-23.4-15-22.2-47.4-5-64.1 12.6-12.2 28.3-15.3 45-14.7 12.1.4 24 2.9 34.2 10.3 9.4 6.8 14.8 16.1 17.1 27.3.4 2-.2 3-2.2 3.4-10.2 1.8-20.4 3.5-30.5 5.4-1.7.3-2.3 0-2.7-1.8-3.1-13.8-15.2-16.5-25.2-13.9-6.1 1.6-9.4 5.9-9.2 11.6.2 4.9 3.6 8.1 9.8 9.6 10.5 2.6 21.5 3.5 31.8 7.3 12.7 4.8 22.8 12.4 27.8 25.6 7.5 19.3-.6 42.4-18.4 53-11 6.4-22.6 9.1-36.1 8.9zM24.8 141.5c0-11.7-.2-21.2.1-30.8.1-4-1.2-5-5-4.8-5.5.3-11 0-16.5.1-2.3.1-3.4-.4-3.4-3.1.1-10.1.1-20.2 0-30.3 0-2.5.8-3.4 3.3-3.2 1.9.2 3.8 0 5.6 0C22.3 69.3 28 59 28.7 49.3c.4-5.5.2-11 .1-16.5-.1-2.8.5-4.1 3.7-4 10.2.2 20.4.2 30.7 0 3.2-.1 3.8 1.1 3.7 4-.2 10.7.1 21.4-.2 32.2-.1 3.9 1.2 4.8 4.8 4.6 6.3-.3 12.6.1 19-.1 3.1-.1 3.8 1 3.7 3.9-.2 9.5-.2 19.1 0 28.6.1 3-.6 4.2-3.9 4.1-6.7-.3-13.4 0-20.2-.1-2 0-3.4.2-3.3 2.8.1 16.4.2 32.8.1 49.2 0 13.3 8.3 15.5 18.9 14.8 7.7-.6 7.7-1 7.7 6.6 0 8.2-.1 16.4 0 24.6 0 2-.4 3.1-2.5 3.8-15.7 4.6-31.1 4.5-45.8-3.2-11.7-6.1-17.7-16.4-19.6-29.3-1.6-12-.3-24-.8-33.8zM470.8 135.1c0 7.5.1 15.1 0 22.6-.2 13.3 8.1 15.7 18.7 15 7.9-.5 7.9-.9 7.9 7.1V204c0 1.8-.3 2.9-2.3 3.5-15.7 4.6-31 4.6-45.8-3-12.1-6.2-18.2-16.8-19.8-30-1.7-14.3-.5-28.7-.7-43.1-.1-7.3-.2-14.5 0-21.8.1-3.1-1-3.9-4-3.8-5.9.2-11.8 0-17.8.1-2.2 0-3.1-.7-3.1-3 .1-10.2.1-20.4 0-30.7 0-2.4 1.1-2.9 3.2-2.9 2.4.1 4.8-.1 7.3-.2 11.7-.4 17.5-10.6 18.1-19.2.4-5.9.3-11.8.1-17.7-.1-2.9 1-3.6 3.7-3.6 10.4.1 20.7.1 31.1 0 2.7 0 3.4.9 3.4 3.5-.1 11.2.1 22.3-.1 33.5 0 3.1 1 3.9 3.9 3.9 6.7-.2 13.5 0 20.2-.1 2.4 0 3.3.5 3.2 3.1-.1 10.1-.1 20.2 0 30.3 0 2.5-.7 3.2-3.2 3.2-6.5-.2-12.9.1-19.4-.1-3.6-.1-5 .7-4.8 4.6.3 8.2.1 16.4.2 24.6-.1 0-.1 0 0 0zM525.2 138.9c0-21.8.1-43.6-.1-65.4 0-3.2.9-4 4.1-4 11.6.2 23.1.2 34.7 0 3 0 3.9.9 3.9 3.9-.1 43.6-.1 87.2 0 130.8 0 2.7-.6 3.7-3.5 3.7-11.8-.2-23.7-.2-35.5 0-2.9 0-3.6-.8-3.5-3.6-.1-21.8-.1-43.6-.1-65.4zM521.4 27.1c-.1-13.9 10.7-25 24.6-25.1 12.9-.1 25.3 9.3 25.3 24.8S560 51.6 546.4 52c-13.7.4-24.9-11-25-24.9z"/>
  </g>
</svg>